# xmcd
#
# Track frame offsets:
#	150
#	12180
#	30617
#	44905
#	62900
#	76034
#	88451
#	102036
#	115321
#	128084
#	139199
#	150742
#
# Disc length: 2144 seconds
#
# Revision: 2
# Processed by: cddbd v1.4PL0 Copyright (c) Steve Scherf et al.
# Submitted via: audiograbber 1.81.01
#
DISCID=9e085e0c
DTITLE=Kim and the cadillacs - I Grandi Successi Originali cd1
DYEAR=1900
DGENRE=Pop
TTITLE0=Stop
TTITLE1=Cadillacs
TTITLE2=Heartdreaker
TTITLE3=Foot stompin'r'n'r
TTITLE4=Boogie woogie cowboy
TTITLE5=Personality
TTITLE6=Ecstasy
TTITLE7=I'm reaby
TTITLE8=Nature boy
TTITLE9=Sweet liptle sixteem
TTITLE10=Rip it up
TTITLE11=Chantilly lace
EXTD=\n
EXTT0=
EXTT1=
EXTT2=
EXTT3=
EXTT4=
EXTT5=
EXTT6=
EXTT7=
EXTT8=
EXTT9=
EXTT10=
EXTT11=
PLAYORDER=
